<mxfile host="app.diagrams.net" modified="2024-04-01T02:30:37.705Z" agent="Mozilla/5.0 (Windows NT 10.0; Win64; x64) AppleWebKit/537.36 (KHTML, like Gecko) Chrome/123.0.0.0 Safari/537.36 Edg/123.0.0.0" etag="T0YEl37AE9_b1WG-G_4o" version="24.2.1" type="github">
  <diagram name="Page-1" id="2YBvvXClWsGukQMizWep">
    <mxGraphModel dx="1156" dy="600" grid="1" gridSize="10" guides="1" tooltips="1" connect="1" arrows="1" fold="1" page="1" pageScale="1" pageWidth="850" pageHeight="1100" math="0" shadow="0">
      <root>
        <mxCell id="0" />
        <mxCell id="1" parent="0" />
        <mxCell id="s_QJNPCMWic4lnKFBkZQ-1" value="" style="html=1;points=[];perimeter=orthogonalPerimeter;outlineConnect=0;targetShapes=umlLifeline;portConstraint=eastwest;newEdgeStyle={&quot;edgeStyle&quot;:&quot;elbowEdgeStyle&quot;,&quot;elbow&quot;:&quot;vertical&quot;,&quot;curved&quot;:0,&quot;rounded&quot;:0};" vertex="1" parent="1">
          <mxGeometry x="85" y="70" width="10" height="540" as="geometry" />
        </mxCell>
        <mxCell id="s_QJNPCMWic4lnKFBkZQ-2" value="SYS" style="shape=umlLifeline;perimeter=lifelinePerimeter;whiteSpace=wrap;html=1;container=0;dropTarget=0;collapsible=0;recursiveResize=0;outlineConnect=0;portConstraint=eastwest;newEdgeStyle={&quot;edgeStyle&quot;:&quot;elbowEdgeStyle&quot;,&quot;elbow&quot;:&quot;vertical&quot;,&quot;curved&quot;:0,&quot;rounded&quot;:0};" vertex="1" parent="1">
          <mxGeometry x="690" width="100" height="760" as="geometry" />
        </mxCell>
        <mxCell id="s_QJNPCMWic4lnKFBkZQ-3" value="" style="html=1;points=[];perimeter=orthogonalPerimeter;outlineConnect=0;targetShapes=umlLifeline;portConstraint=eastwest;newEdgeStyle={&quot;edgeStyle&quot;:&quot;elbowEdgeStyle&quot;,&quot;elbow&quot;:&quot;vertical&quot;,&quot;curved&quot;:0,&quot;rounded&quot;:0};" vertex="1" parent="s_QJNPCMWic4lnKFBkZQ-2">
          <mxGeometry x="45" y="80" width="10" height="520" as="geometry" />
        </mxCell>
        <mxCell id="s_QJNPCMWic4lnKFBkZQ-4" value="&lt;div style=&quot;text-align: left;&quot;&gt;&lt;font style=&quot;font-size: 12px;&quot; face=&quot;Google Sans, Helvetica Neue, sans-serif&quot; color=&quot;#1f1f1f&quot;&gt;L&#39;étudiant se connecte au systéme&lt;/font&gt;&lt;/div&gt;" style="html=1;verticalAlign=bottom;endArrow=block;edgeStyle=elbowEdgeStyle;elbow=horizontal;curved=0;rounded=0;" edge="1" parent="1" source="s_QJNPCMWic4lnKFBkZQ-1" target="s_QJNPCMWic4lnKFBkZQ-3">
          <mxGeometry relative="1" as="geometry">
            <mxPoint x="195" y="130" as="sourcePoint" />
            <Array as="points">
              <mxPoint x="180" y="120" />
            </Array>
            <mxPoint as="offset" />
          </mxGeometry>
        </mxCell>
        <mxCell id="s_QJNPCMWic4lnKFBkZQ-5" value="Etudiant" style="shape=umlActor;verticalLabelPosition=bottom;verticalAlign=top;html=1;" vertex="1" parent="1">
          <mxGeometry x="85" width="10" height="20" as="geometry" />
        </mxCell>
        <mxCell id="s_QJNPCMWic4lnKFBkZQ-6" value="" style="html=1;verticalAlign=bottom;endArrow=block;edgeStyle=elbowEdgeStyle;elbow=vertical;curved=0;rounded=0;" edge="1" parent="1" source="s_QJNPCMWic4lnKFBkZQ-2">
          <mxGeometry x="-0.0006" relative="1" as="geometry">
            <mxPoint x="263" y="150" as="sourcePoint" />
            <Array as="points">
              <mxPoint x="188" y="150" />
            </Array>
            <mxPoint x="98" y="150" as="targetPoint" />
            <mxPoint as="offset" />
          </mxGeometry>
        </mxCell>
        <mxCell id="s_QJNPCMWic4lnKFBkZQ-7" value="Le système authentifie l&#39;étudiant." style="edgeLabel;html=1;align=center;verticalAlign=middle;resizable=0;points=[];" vertex="1" connectable="0" parent="s_QJNPCMWic4lnKFBkZQ-6">
          <mxGeometry x="0.0397" y="4" relative="1" as="geometry">
            <mxPoint x="2" y="-14" as="offset" />
          </mxGeometry>
        </mxCell>
        <mxCell id="s_QJNPCMWic4lnKFBkZQ-8" value="L&#39;étudiant sélectionne l&#39;option &quot;Demander une Relever de note&quot;." style="html=1;verticalAlign=bottom;endArrow=block;edgeStyle=elbowEdgeStyle;elbow=horizontal;curved=0;rounded=0;" edge="1" parent="1" target="s_QJNPCMWic4lnKFBkZQ-2">
          <mxGeometry relative="1" as="geometry">
            <mxPoint x="95" y="180" as="sourcePoint" />
            <Array as="points">
              <mxPoint x="180" y="180" />
            </Array>
            <mxPoint x="265" y="180" as="targetPoint" />
          </mxGeometry>
        </mxCell>
        <mxCell id="s_QJNPCMWic4lnKFBkZQ-9" value="Le système affiche un formulaire à remplir." style="html=1;verticalAlign=bottom;endArrow=block;edgeStyle=elbowEdgeStyle;elbow=vertical;curved=0;rounded=0;" edge="1" parent="1">
          <mxGeometry relative="1" as="geometry">
            <mxPoint x="734.5" y="210" as="sourcePoint" />
            <Array as="points">
              <mxPoint x="185" y="210" />
            </Array>
            <mxPoint x="95" y="210" as="targetPoint" />
          </mxGeometry>
        </mxCell>
        <mxCell id="s_QJNPCMWic4lnKFBkZQ-10" value="L&#39;étudiant remplit le formulaire et le soumet" style="html=1;verticalAlign=bottom;endArrow=block;edgeStyle=elbowEdgeStyle;elbow=vertical;curved=0;rounded=0;" edge="1" parent="1">
          <mxGeometry x="0.0011" relative="1" as="geometry">
            <mxPoint x="95" y="241" as="sourcePoint" />
            <Array as="points">
              <mxPoint x="180" y="241" />
            </Array>
            <mxPoint x="739.5" y="241" as="targetPoint" />
            <mxPoint as="offset" />
          </mxGeometry>
        </mxCell>
        <mxCell id="s_QJNPCMWic4lnKFBkZQ-11" value="" style="shape=umlLifeline;perimeter=lifelinePerimeter;whiteSpace=wrap;html=1;container=0;dropTarget=0;collapsible=0;recursiveResize=0;outlineConnect=0;portConstraint=eastwest;newEdgeStyle={&quot;edgeStyle&quot;:&quot;elbowEdgeStyle&quot;,&quot;elbow&quot;:&quot;vertical&quot;,&quot;curved&quot;:0,&quot;rounded&quot;:0};" vertex="1" parent="1">
          <mxGeometry x="1090" width="100" height="760" as="geometry" />
        </mxCell>
        <mxCell id="s_QJNPCMWic4lnKFBkZQ-12" value="" style="html=1;points=[];perimeter=orthogonalPerimeter;outlineConnect=0;targetShapes=umlLifeline;portConstraint=eastwest;newEdgeStyle={&quot;edgeStyle&quot;:&quot;elbowEdgeStyle&quot;,&quot;elbow&quot;:&quot;vertical&quot;,&quot;curved&quot;:0,&quot;rounded&quot;:0};" vertex="1" parent="s_QJNPCMWic4lnKFBkZQ-11">
          <mxGeometry x="45" y="250" width="10" height="140" as="geometry" />
        </mxCell>
        <mxCell id="s_QJNPCMWic4lnKFBkZQ-13" value="Admin" style="shape=umlActor;verticalLabelPosition=bottom;verticalAlign=top;html=1;" vertex="1" parent="1">
          <mxGeometry x="1135" width="10" height="20" as="geometry" />
        </mxCell>
        <mxCell id="s_QJNPCMWic4lnKFBkZQ-14" value="" style="edgeStyle=elbowEdgeStyle;rounded=0;orthogonalLoop=1;jettySize=auto;html=1;elbow=vertical;curved=0;" edge="1" parent="1">
          <mxGeometry relative="1" as="geometry">
            <mxPoint x="1135.0000000000005" y="330.353043478261" as="sourcePoint" />
            <mxPoint x="745.5000000000002" y="330.00304347826096" as="targetPoint" />
          </mxGeometry>
        </mxCell>
        <mxCell id="s_QJNPCMWic4lnKFBkZQ-15" value="Admin renvoie la réponse au systéme&amp;nbsp;" style="edgeLabel;html=1;align=center;verticalAlign=middle;resizable=0;points=[];" vertex="1" connectable="0" parent="s_QJNPCMWic4lnKFBkZQ-14">
          <mxGeometry x="-0.0852" y="2" relative="1" as="geometry">
            <mxPoint x="3" y="-12" as="offset" />
          </mxGeometry>
        </mxCell>
        <mxCell id="s_QJNPCMWic4lnKFBkZQ-16" value="" style="edgeStyle=elbowEdgeStyle;rounded=0;orthogonalLoop=1;jettySize=auto;html=1;elbow=vertical;curved=0;" edge="1" parent="1" target="s_QJNPCMWic4lnKFBkZQ-11">
          <mxGeometry relative="1" as="geometry">
            <mxPoint x="740" y="280.3" as="sourcePoint" />
            <mxPoint x="820.0000000000002" y="280.43043478260876" as="targetPoint" />
          </mxGeometry>
        </mxCell>
        <mxCell id="s_QJNPCMWic4lnKFBkZQ-17" value="Le système &#39;envoie à l&#39;administrateur une demande d&#39;attestation" style="edgeLabel;html=1;align=center;verticalAlign=middle;resizable=0;points=[];" vertex="1" connectable="0" parent="s_QJNPCMWic4lnKFBkZQ-16">
          <mxGeometry x="0.0642" y="1" relative="1" as="geometry">
            <mxPoint x="-3" y="-9" as="offset" />
          </mxGeometry>
        </mxCell>
        <mxCell id="s_QJNPCMWic4lnKFBkZQ-18" value="[Admin Valide]" style="text;html=1;strokeColor=none;fillColor=none;align=center;verticalAlign=middle;whiteSpace=wrap;rounded=0;" vertex="1" parent="1">
          <mxGeometry x="120" y="370" width="60" height="30" as="geometry" />
        </mxCell>
        <mxCell id="s_QJNPCMWic4lnKFBkZQ-19" value="" style="html=1;verticalAlign=bottom;endArrow=block;edgeStyle=elbowEdgeStyle;elbow=vertical;curved=0;rounded=0;" edge="1" parent="1">
          <mxGeometry x="-0.0006" relative="1" as="geometry">
            <mxPoint x="737" y="430" as="sourcePoint" />
            <Array as="points">
              <mxPoint x="185" y="430" />
            </Array>
            <mxPoint x="95" y="430" as="targetPoint" />
            <mxPoint as="offset" />
          </mxGeometry>
        </mxCell>
        <mxCell id="s_QJNPCMWic4lnKFBkZQ-20" value=" Envoyer message de confirmation" style="edgeLabel;html=1;align=center;verticalAlign=middle;resizable=0;points=[];" vertex="1" connectable="0" parent="s_QJNPCMWic4lnKFBkZQ-19">
          <mxGeometry x="0.0397" y="4" relative="1" as="geometry">
            <mxPoint x="2" y="-14" as="offset" />
          </mxGeometry>
        </mxCell>
        <mxCell id="s_QJNPCMWic4lnKFBkZQ-21" value="" style="html=1;verticalAlign=bottom;endArrow=block;edgeStyle=elbowEdgeStyle;elbow=vertical;curved=0;rounded=0;" edge="1" parent="1">
          <mxGeometry x="-0.0006" relative="1" as="geometry">
            <mxPoint x="737" y="459.57" as="sourcePoint" />
            <Array as="points">
              <mxPoint x="185" y="459.57" />
            </Array>
            <mxPoint x="95" y="459.57" as="targetPoint" />
            <mxPoint as="offset" />
          </mxGeometry>
        </mxCell>
        <mxCell id="s_QJNPCMWic4lnKFBkZQ-22" value="Autoriser téléchargement attestation" style="edgeLabel;html=1;align=center;verticalAlign=middle;resizable=0;points=[];" vertex="1" connectable="0" parent="s_QJNPCMWic4lnKFBkZQ-21">
          <mxGeometry x="0.0397" y="4" relative="1" as="geometry">
            <mxPoint x="2" y="-14" as="offset" />
          </mxGeometry>
        </mxCell>
        <mxCell id="s_QJNPCMWic4lnKFBkZQ-23" value="[Else]" style="text;html=1;strokeColor=none;fillColor=none;align=center;verticalAlign=middle;whiteSpace=wrap;rounded=0;" vertex="1" parent="1">
          <mxGeometry x="110" y="470" width="60" height="30" as="geometry" />
        </mxCell>
        <mxCell id="s_QJNPCMWic4lnKFBkZQ-24" value="" style="html=1;verticalAlign=bottom;endArrow=block;edgeStyle=elbowEdgeStyle;elbow=vertical;curved=0;rounded=0;" edge="1" parent="1">
          <mxGeometry x="-0.0006" relative="1" as="geometry">
            <mxPoint x="737" y="510" as="sourcePoint" />
            <Array as="points">
              <mxPoint x="185" y="510" />
            </Array>
            <mxPoint x="95" y="510" as="targetPoint" />
            <mxPoint as="offset" />
          </mxGeometry>
        </mxCell>
        <mxCell id="s_QJNPCMWic4lnKFBkZQ-25" value="Envoyer un message de rejet&amp;nbsp;" style="edgeLabel;html=1;align=center;verticalAlign=middle;resizable=0;points=[];" vertex="1" connectable="0" parent="s_QJNPCMWic4lnKFBkZQ-24">
          <mxGeometry x="0.0397" y="4" relative="1" as="geometry">
            <mxPoint x="2" y="-14" as="offset" />
          </mxGeometry>
        </mxCell>
        <mxCell id="s_QJNPCMWic4lnKFBkZQ-27" value="Affiche&amp;nbsp;le statut de la demande&amp;nbsp;" style="html=1;verticalAlign=bottom;endArrow=block;edgeStyle=elbowEdgeStyle;elbow=vertical;curved=0;rounded=0;" edge="1" parent="1">
          <mxGeometry relative="1" as="geometry">
            <mxPoint x="734.5" y="270" as="sourcePoint" />
            <Array as="points">
              <mxPoint x="185" y="270" />
            </Array>
            <mxPoint x="95" y="270" as="targetPoint" />
          </mxGeometry>
        </mxCell>
        <mxCell id="s_QJNPCMWic4lnKFBkZQ-28" value="Consulter le statut de la demande&amp;nbsp;" style="html=1;verticalAlign=bottom;endArrow=block;edgeStyle=elbowEdgeStyle;elbow=vertical;curved=0;rounded=0;" edge="1" parent="1">
          <mxGeometry x="0.0011" relative="1" as="geometry">
            <mxPoint x="91" y="352" as="sourcePoint" />
            <Array as="points">
              <mxPoint x="176" y="352" />
            </Array>
            <mxPoint x="735.5" y="352" as="targetPoint" />
            <mxPoint as="offset" />
          </mxGeometry>
        </mxCell>
      </root>
    </mxGraphModel>
  </diagram>
</mxfile>
